<mxfile host="app.diagrams.net" modified="2021-08-14T01:03:16.497Z" agent="5.0 (Windows)" etag="fcoVSyKcZ2TiEE7iZPxE" version="14.9.6" type="github" pages="3">
  <diagram id="-BJuXsBRdGkNko0JLotl" name="Diagramas explicativos">
    <mxGraphModel dx="868" dy="440" grid="0" gridSize="10" guides="0" tooltips="1" connect="1" arrows="1" fold="1" page="1" pageScale="1" pageWidth="827" pageHeight="1169" math="0" shadow="0">
      <root>
        <mxCell id="0" />
        <mxCell id="1" parent="0" />
        <mxCell id="3yPHutI_X12CiIS1RCkh-2" value="Initialize the weights of the network" style="rounded=1;whiteSpace=wrap;html=1;arcSize=8;strokeWidth=2;strokeColor=#858585;" parent="1" vertex="1">
          <mxGeometry x="150" y="60" width="100" height="60" as="geometry" />
        </mxCell>
        <mxCell id="3yPHutI_X12CiIS1RCkh-3" value="" style="shape=flexArrow;endArrow=classic;html=1;width=24;endSize=7.33;strokeWidth=2;strokeColor=#858585;" parent="1" edge="1">
          <mxGeometry width="50" height="50" relative="1" as="geometry">
            <mxPoint x="270" y="89.5" as="sourcePoint" />
            <mxPoint x="330" y="90" as="targetPoint" />
          </mxGeometry>
        </mxCell>
        <mxCell id="3yPHutI_X12CiIS1RCkh-4" value="Select an action" style="rounded=1;whiteSpace=wrap;html=1;arcSize=8;strokeWidth=2;strokeColor=#858585;" parent="1" vertex="1">
          <mxGeometry x="347" y="60" width="100" height="60" as="geometry" />
        </mxCell>
        <mxCell id="3yPHutI_X12CiIS1RCkh-5" value="Update the netwoks Weights using the Bellman&#39;s equation" style="rounded=1;whiteSpace=wrap;html=1;arcSize=8;strokeWidth=2;strokeColor=#858585;" parent="1" vertex="1">
          <mxGeometry x="540" y="60" width="150" height="60" as="geometry" />
        </mxCell>
        <mxCell id="3yPHutI_X12CiIS1RCkh-6" value="" style="shape=flexArrow;endArrow=classic;html=1;width=24;endSize=7.33;strokeWidth=2;strokeColor=#858585;" parent="1" edge="1">
          <mxGeometry width="50" height="50" relative="1" as="geometry">
            <mxPoint x="470" y="89.5" as="sourcePoint" />
            <mxPoint x="530" y="90" as="targetPoint" />
          </mxGeometry>
        </mxCell>
        <mxCell id="WfnMXLwcWTietXO8f9_h-9" style="rounded=0;orthogonalLoop=1;jettySize=auto;html=1;exitX=1;exitY=0.5;exitDx=0;exitDy=0;entryX=0;entryY=0.5;entryDx=0;entryDy=0;strokeColor=#858585;strokeWidth=2;endArrow=none;endFill=0;" parent="1" source="WfnMXLwcWTietXO8f9_h-1" target="WfnMXLwcWTietXO8f9_h-5" edge="1">
          <mxGeometry relative="1" as="geometry" />
        </mxCell>
        <mxCell id="WfnMXLwcWTietXO8f9_h-10" style="edgeStyle=none;rounded=0;orthogonalLoop=1;jettySize=auto;html=1;exitX=1;exitY=0.5;exitDx=0;exitDy=0;entryX=0;entryY=0.5;entryDx=0;entryDy=0;endArrow=none;endFill=0;strokeColor=#858585;strokeWidth=2;" parent="1" source="WfnMXLwcWTietXO8f9_h-1" target="WfnMXLwcWTietXO8f9_h-6" edge="1">
          <mxGeometry relative="1" as="geometry" />
        </mxCell>
        <mxCell id="WfnMXLwcWTietXO8f9_h-1" value="" style="ellipse;whiteSpace=wrap;html=1;aspect=fixed;rounded=1;strokeColor=#858585;strokeWidth=2;fillColor=#ffffff;" parent="1" vertex="1">
          <mxGeometry x="155" y="370" width="80" height="80" as="geometry" />
        </mxCell>
        <mxCell id="WfnMXLwcWTietXO8f9_h-11" style="edgeStyle=none;rounded=0;orthogonalLoop=1;jettySize=auto;html=1;exitX=1;exitY=0.5;exitDx=0;exitDy=0;entryX=0;entryY=0.5;entryDx=0;entryDy=0;endArrow=none;endFill=0;strokeColor=#858585;strokeWidth=2;" parent="1" source="WfnMXLwcWTietXO8f9_h-2" target="WfnMXLwcWTietXO8f9_h-5" edge="1">
          <mxGeometry relative="1" as="geometry" />
        </mxCell>
        <mxCell id="WfnMXLwcWTietXO8f9_h-12" style="edgeStyle=none;rounded=0;orthogonalLoop=1;jettySize=auto;html=1;exitX=1;exitY=0.5;exitDx=0;exitDy=0;entryX=0;entryY=0.5;entryDx=0;entryDy=0;endArrow=none;endFill=0;strokeColor=#858585;strokeWidth=2;" parent="1" source="WfnMXLwcWTietXO8f9_h-2" target="WfnMXLwcWTietXO8f9_h-6" edge="1">
          <mxGeometry relative="1" as="geometry" />
        </mxCell>
        <mxCell id="WfnMXLwcWTietXO8f9_h-2" value="" style="ellipse;whiteSpace=wrap;html=1;aspect=fixed;rounded=1;strokeColor=#858585;strokeWidth=2;fillColor=#ffffff;" parent="1" vertex="1">
          <mxGeometry x="155" y="470" width="80" height="80" as="geometry" />
        </mxCell>
        <mxCell id="WfnMXLwcWTietXO8f9_h-13" style="edgeStyle=none;rounded=0;orthogonalLoop=1;jettySize=auto;html=1;exitX=1;exitY=0.5;exitDx=0;exitDy=0;entryX=0;entryY=0.5;entryDx=0;entryDy=0;endArrow=none;endFill=0;strokeColor=#858585;strokeWidth=2;" parent="1" source="WfnMXLwcWTietXO8f9_h-3" target="WfnMXLwcWTietXO8f9_h-5" edge="1">
          <mxGeometry relative="1" as="geometry" />
        </mxCell>
        <mxCell id="WfnMXLwcWTietXO8f9_h-14" style="edgeStyle=none;rounded=0;orthogonalLoop=1;jettySize=auto;html=1;exitX=1;exitY=0.5;exitDx=0;exitDy=0;entryX=0;entryY=0.5;entryDx=0;entryDy=0;endArrow=none;endFill=0;strokeColor=#858585;strokeWidth=2;" parent="1" source="WfnMXLwcWTietXO8f9_h-3" target="WfnMXLwcWTietXO8f9_h-6" edge="1">
          <mxGeometry relative="1" as="geometry" />
        </mxCell>
        <mxCell id="WfnMXLwcWTietXO8f9_h-3" value="" style="ellipse;whiteSpace=wrap;html=1;aspect=fixed;rounded=1;strokeColor=#858585;strokeWidth=2;fillColor=#ffffff;" parent="1" vertex="1">
          <mxGeometry x="155" y="570" width="80" height="80" as="geometry" />
        </mxCell>
        <mxCell id="WfnMXLwcWTietXO8f9_h-15" style="edgeStyle=none;rounded=0;orthogonalLoop=1;jettySize=auto;html=1;exitX=1;exitY=0.5;exitDx=0;exitDy=0;entryX=0;entryY=0.5;entryDx=0;entryDy=0;endArrow=none;endFill=0;strokeColor=#858585;strokeWidth=2;" parent="1" source="WfnMXLwcWTietXO8f9_h-4" target="WfnMXLwcWTietXO8f9_h-5" edge="1">
          <mxGeometry relative="1" as="geometry" />
        </mxCell>
        <mxCell id="WfnMXLwcWTietXO8f9_h-16" style="edgeStyle=none;rounded=0;orthogonalLoop=1;jettySize=auto;html=1;exitX=1;exitY=0.5;exitDx=0;exitDy=0;entryX=0;entryY=0.5;entryDx=0;entryDy=0;endArrow=none;endFill=0;strokeColor=#858585;strokeWidth=2;" parent="1" source="WfnMXLwcWTietXO8f9_h-4" target="WfnMXLwcWTietXO8f9_h-6" edge="1">
          <mxGeometry relative="1" as="geometry" />
        </mxCell>
        <mxCell id="WfnMXLwcWTietXO8f9_h-4" value="" style="ellipse;whiteSpace=wrap;html=1;aspect=fixed;rounded=1;strokeColor=#858585;strokeWidth=2;fillColor=#ffffff;" parent="1" vertex="1">
          <mxGeometry x="155" y="670" width="80" height="80" as="geometry" />
        </mxCell>
        <mxCell id="WfnMXLwcWTietXO8f9_h-17" style="edgeStyle=none;rounded=0;orthogonalLoop=1;jettySize=auto;html=1;exitX=1;exitY=0.5;exitDx=0;exitDy=0;entryX=0;entryY=0.5;entryDx=0;entryDy=0;endArrow=none;endFill=0;strokeColor=#858585;strokeWidth=2;" parent="1" source="WfnMXLwcWTietXO8f9_h-5" target="WfnMXLwcWTietXO8f9_h-8" edge="1">
          <mxGeometry relative="1" as="geometry" />
        </mxCell>
        <mxCell id="WfnMXLwcWTietXO8f9_h-19" style="edgeStyle=none;rounded=0;orthogonalLoop=1;jettySize=auto;html=1;exitX=1;exitY=0.5;exitDx=0;exitDy=0;entryX=0;entryY=0.5;entryDx=0;entryDy=0;endArrow=none;endFill=0;strokeColor=#858585;strokeWidth=2;" parent="1" source="WfnMXLwcWTietXO8f9_h-5" target="WfnMXLwcWTietXO8f9_h-7" edge="1">
          <mxGeometry relative="1" as="geometry" />
        </mxCell>
        <mxCell id="WfnMXLwcWTietXO8f9_h-5" value="" style="ellipse;whiteSpace=wrap;html=1;aspect=fixed;rounded=1;strokeColor=#858585;strokeWidth=2;fillColor=#ffffff;" parent="1" vertex="1">
          <mxGeometry x="315" y="460" width="80" height="80" as="geometry" />
        </mxCell>
        <mxCell id="WfnMXLwcWTietXO8f9_h-18" style="edgeStyle=none;rounded=0;orthogonalLoop=1;jettySize=auto;html=1;exitX=1;exitY=0.5;exitDx=0;exitDy=0;entryX=0;entryY=0.5;entryDx=0;entryDy=0;endArrow=none;endFill=0;strokeColor=#858585;strokeWidth=2;" parent="1" source="WfnMXLwcWTietXO8f9_h-6" target="WfnMXLwcWTietXO8f9_h-7" edge="1">
          <mxGeometry relative="1" as="geometry" />
        </mxCell>
        <mxCell id="WfnMXLwcWTietXO8f9_h-20" style="edgeStyle=none;rounded=0;orthogonalLoop=1;jettySize=auto;html=1;exitX=1;exitY=0.5;exitDx=0;exitDy=0;entryX=0;entryY=0.5;entryDx=0;entryDy=0;endArrow=none;endFill=0;strokeColor=#858585;strokeWidth=2;" parent="1" source="WfnMXLwcWTietXO8f9_h-6" target="WfnMXLwcWTietXO8f9_h-8" edge="1">
          <mxGeometry relative="1" as="geometry" />
        </mxCell>
        <mxCell id="WfnMXLwcWTietXO8f9_h-6" value="" style="ellipse;whiteSpace=wrap;html=1;aspect=fixed;rounded=1;strokeColor=#858585;strokeWidth=2;fillColor=#ffffff;" parent="1" vertex="1">
          <mxGeometry x="315" y="580" width="80" height="80" as="geometry" />
        </mxCell>
        <mxCell id="WfnMXLwcWTietXO8f9_h-7" value="" style="ellipse;whiteSpace=wrap;html=1;aspect=fixed;rounded=1;strokeColor=#858585;strokeWidth=2;fillColor=#ffffff;" parent="1" vertex="1">
          <mxGeometry x="465" y="460" width="80" height="80" as="geometry" />
        </mxCell>
        <mxCell id="WfnMXLwcWTietXO8f9_h-8" value="" style="ellipse;whiteSpace=wrap;html=1;aspect=fixed;rounded=1;strokeColor=#858585;strokeWidth=2;fillColor=#ffffff;" parent="1" vertex="1">
          <mxGeometry x="465" y="580" width="80" height="80" as="geometry" />
        </mxCell>
        <mxCell id="WfnMXLwcWTietXO8f9_h-21" value="&lt;h1 align=&quot;center&quot;&gt;&lt;font style=&quot;font-size: 20px&quot;&gt;Input Layer&lt;/font&gt;&lt;br&gt;&lt;/h1&gt;&lt;p style=&quot;font-size: 14px&quot; align=&quot;center&quot;&gt;State Representation&lt;br&gt;&lt;/p&gt;" style="text;html=1;strokeColor=none;fillColor=none;spacing=5;spacingTop=-20;whiteSpace=wrap;overflow=hidden;rounded=0;align=center;" parent="1" vertex="1">
          <mxGeometry x="130" y="270" width="130" height="90" as="geometry" />
        </mxCell>
        <mxCell id="WfnMXLwcWTietXO8f9_h-22" value="&lt;h1 align=&quot;center&quot;&gt;&lt;font style=&quot;font-size: 20px&quot;&gt;Output Layer&lt;/font&gt;&lt;br&gt;&lt;/h1&gt;&lt;p style=&quot;font-size: 14px&quot; align=&quot;center&quot;&gt;Prediction of the Q-values for each action given the state.&lt;br&gt;&lt;/p&gt;" style="text;html=1;strokeColor=none;fillColor=none;spacing=5;spacingTop=-20;whiteSpace=wrap;overflow=hidden;rounded=0;align=center;" parent="1" vertex="1">
          <mxGeometry x="419" y="270" width="180" height="100" as="geometry" />
        </mxCell>
        <mxCell id="WfnMXLwcWTietXO8f9_h-26" value="" style="ellipse;whiteSpace=wrap;html=1;aspect=fixed;rounded=1;strokeColor=#858585;strokeWidth=2;fillColor=#ffffff;" parent="1" vertex="1">
          <mxGeometry x="143" y="880" width="25.263076923076923" height="25.263076923076923" as="geometry" />
        </mxCell>
        <mxCell id="WfnMXLwcWTietXO8f9_h-29" value="" style="ellipse;whiteSpace=wrap;html=1;aspect=fixed;rounded=1;strokeColor=#858585;strokeWidth=2;fillColor=#ffffff;" parent="1" vertex="1">
          <mxGeometry x="143" y="911.578947368421" width="25.263076923076923" height="25.263076923076923" as="geometry" />
        </mxCell>
        <mxCell id="WfnMXLwcWTietXO8f9_h-32" value="" style="ellipse;whiteSpace=wrap;html=1;aspect=fixed;rounded=1;strokeColor=#858585;strokeWidth=2;fillColor=#ffffff;" parent="1" vertex="1">
          <mxGeometry x="143" y="943.1578947368421" width="25.263076923076923" height="25.263076923076923" as="geometry" />
        </mxCell>
        <mxCell id="WfnMXLwcWTietXO8f9_h-35" value="" style="ellipse;whiteSpace=wrap;html=1;aspect=fixed;rounded=1;strokeColor=#858585;strokeWidth=2;fillColor=#ffffff;" parent="1" vertex="1">
          <mxGeometry x="143" y="974.7368421052631" width="25.263076923076923" height="25.263076923076923" as="geometry" />
        </mxCell>
        <mxCell id="WfnMXLwcWTietXO8f9_h-38" value="" style="ellipse;whiteSpace=wrap;html=1;aspect=fixed;rounded=1;strokeColor=#858585;strokeWidth=2;fillColor=#ffffff;" parent="1" vertex="1">
          <mxGeometry x="204.7371794871795" y="908.421052631579" width="25.263076923076923" height="25.263076923076923" as="geometry" />
        </mxCell>
        <mxCell id="WfnMXLwcWTietXO8f9_h-24" style="rounded=0;orthogonalLoop=1;jettySize=auto;html=1;exitX=1;exitY=0.5;exitDx=0;exitDy=0;entryX=0;entryY=0.5;entryDx=0;entryDy=0;strokeColor=#858585;strokeWidth=2;endArrow=none;endFill=0;" parent="1" source="WfnMXLwcWTietXO8f9_h-26" target="WfnMXLwcWTietXO8f9_h-38" edge="1">
          <mxGeometry x="140" y="880" as="geometry" />
        </mxCell>
        <mxCell id="WfnMXLwcWTietXO8f9_h-27" style="edgeStyle=none;rounded=0;orthogonalLoop=1;jettySize=auto;html=1;exitX=1;exitY=0.5;exitDx=0;exitDy=0;entryX=0;entryY=0.5;entryDx=0;entryDy=0;endArrow=none;endFill=0;strokeColor=#858585;strokeWidth=2;" parent="1" source="WfnMXLwcWTietXO8f9_h-29" target="WfnMXLwcWTietXO8f9_h-38" edge="1">
          <mxGeometry x="140" y="880" as="geometry" />
        </mxCell>
        <mxCell id="WfnMXLwcWTietXO8f9_h-30" style="edgeStyle=none;rounded=0;orthogonalLoop=1;jettySize=auto;html=1;exitX=1;exitY=0.5;exitDx=0;exitDy=0;entryX=0;entryY=0.5;entryDx=0;entryDy=0;endArrow=none;endFill=0;strokeColor=#858585;strokeWidth=2;" parent="1" source="WfnMXLwcWTietXO8f9_h-32" target="WfnMXLwcWTietXO8f9_h-38" edge="1">
          <mxGeometry x="140" y="880" as="geometry" />
        </mxCell>
        <mxCell id="WfnMXLwcWTietXO8f9_h-33" style="edgeStyle=none;rounded=0;orthogonalLoop=1;jettySize=auto;html=1;exitX=1;exitY=0.5;exitDx=0;exitDy=0;entryX=0;entryY=0.5;entryDx=0;entryDy=0;endArrow=none;endFill=0;strokeColor=#858585;strokeWidth=2;" parent="1" source="WfnMXLwcWTietXO8f9_h-35" target="WfnMXLwcWTietXO8f9_h-38" edge="1">
          <mxGeometry x="140" y="880" as="geometry" />
        </mxCell>
        <mxCell id="WfnMXLwcWTietXO8f9_h-41" value="" style="ellipse;whiteSpace=wrap;html=1;aspect=fixed;rounded=1;strokeColor=#858585;strokeWidth=2;fillColor=#ffffff;" parent="1" vertex="1">
          <mxGeometry x="204.7371794871795" y="946.3157894736842" width="25.263076923076923" height="25.263076923076923" as="geometry" />
        </mxCell>
        <mxCell id="WfnMXLwcWTietXO8f9_h-25" style="edgeStyle=none;rounded=0;orthogonalLoop=1;jettySize=auto;html=1;exitX=1;exitY=0.5;exitDx=0;exitDy=0;entryX=0;entryY=0.5;entryDx=0;entryDy=0;endArrow=none;endFill=0;strokeColor=#858585;strokeWidth=2;" parent="1" source="WfnMXLwcWTietXO8f9_h-26" target="WfnMXLwcWTietXO8f9_h-41" edge="1">
          <mxGeometry x="140" y="880" as="geometry" />
        </mxCell>
        <mxCell id="WfnMXLwcWTietXO8f9_h-28" style="edgeStyle=none;rounded=0;orthogonalLoop=1;jettySize=auto;html=1;exitX=1;exitY=0.5;exitDx=0;exitDy=0;entryX=0;entryY=0.5;entryDx=0;entryDy=0;endArrow=none;endFill=0;strokeColor=#858585;strokeWidth=2;" parent="1" source="WfnMXLwcWTietXO8f9_h-29" target="WfnMXLwcWTietXO8f9_h-41" edge="1">
          <mxGeometry x="140" y="880" as="geometry" />
        </mxCell>
        <mxCell id="WfnMXLwcWTietXO8f9_h-31" style="edgeStyle=none;rounded=0;orthogonalLoop=1;jettySize=auto;html=1;exitX=1;exitY=0.5;exitDx=0;exitDy=0;entryX=0;entryY=0.5;entryDx=0;entryDy=0;endArrow=none;endFill=0;strokeColor=#858585;strokeWidth=2;" parent="1" source="WfnMXLwcWTietXO8f9_h-32" target="WfnMXLwcWTietXO8f9_h-41" edge="1">
          <mxGeometry x="140" y="880" as="geometry" />
        </mxCell>
        <mxCell id="WfnMXLwcWTietXO8f9_h-34" style="edgeStyle=none;rounded=0;orthogonalLoop=1;jettySize=auto;html=1;exitX=1;exitY=0.5;exitDx=0;exitDy=0;entryX=0;entryY=0.5;entryDx=0;entryDy=0;endArrow=none;endFill=0;strokeColor=#858585;strokeWidth=2;" parent="1" source="WfnMXLwcWTietXO8f9_h-35" target="WfnMXLwcWTietXO8f9_h-41" edge="1">
          <mxGeometry x="140" y="880" as="geometry" />
        </mxCell>
        <mxCell id="WfnMXLwcWTietXO8f9_h-42" value="" style="ellipse;whiteSpace=wrap;html=1;aspect=fixed;rounded=1;strokeColor=#858585;strokeWidth=2;fillColor=#ffffff;" parent="1" vertex="1">
          <mxGeometry x="264.9964102564103" y="908.421052631579" width="25.263076923076923" height="25.263076923076923" as="geometry" />
        </mxCell>
        <mxCell id="WfnMXLwcWTietXO8f9_h-37" style="edgeStyle=none;rounded=0;orthogonalLoop=1;jettySize=auto;html=1;exitX=1;exitY=0.5;exitDx=0;exitDy=0;entryX=0;entryY=0.5;entryDx=0;entryDy=0;endArrow=none;endFill=0;strokeColor=#858585;strokeWidth=2;" parent="1" source="WfnMXLwcWTietXO8f9_h-38" target="WfnMXLwcWTietXO8f9_h-42" edge="1">
          <mxGeometry x="140" y="880" as="geometry" />
        </mxCell>
        <mxCell id="WfnMXLwcWTietXO8f9_h-39" style="edgeStyle=none;rounded=0;orthogonalLoop=1;jettySize=auto;html=1;exitX=1;exitY=0.5;exitDx=0;exitDy=0;entryX=0;entryY=0.5;entryDx=0;entryDy=0;endArrow=none;endFill=0;strokeColor=#858585;strokeWidth=2;" parent="1" source="WfnMXLwcWTietXO8f9_h-41" target="WfnMXLwcWTietXO8f9_h-42" edge="1">
          <mxGeometry x="140" y="880" as="geometry" />
        </mxCell>
        <mxCell id="WfnMXLwcWTietXO8f9_h-43" value="" style="ellipse;whiteSpace=wrap;html=1;aspect=fixed;rounded=1;strokeColor=#858585;strokeWidth=2;fillColor=#ffffff;" parent="1" vertex="1">
          <mxGeometry x="264.9964102564103" y="946.3157894736842" width="25.263076923076923" height="25.263076923076923" as="geometry" />
        </mxCell>
        <mxCell id="WfnMXLwcWTietXO8f9_h-36" style="edgeStyle=none;rounded=0;orthogonalLoop=1;jettySize=auto;html=1;exitX=1;exitY=0.5;exitDx=0;exitDy=0;entryX=0;entryY=0.5;entryDx=0;entryDy=0;endArrow=none;endFill=0;strokeColor=#858585;strokeWidth=2;" parent="1" source="WfnMXLwcWTietXO8f9_h-38" target="WfnMXLwcWTietXO8f9_h-43" edge="1">
          <mxGeometry x="140" y="880" as="geometry" />
        </mxCell>
        <mxCell id="WfnMXLwcWTietXO8f9_h-40" style="edgeStyle=none;rounded=0;orthogonalLoop=1;jettySize=auto;html=1;exitX=1;exitY=0.5;exitDx=0;exitDy=0;entryX=0;entryY=0.5;entryDx=0;entryDy=0;endArrow=none;endFill=0;strokeColor=#858585;strokeWidth=2;" parent="1" source="WfnMXLwcWTietXO8f9_h-41" target="WfnMXLwcWTietXO8f9_h-43" edge="1">
          <mxGeometry x="140" y="880" as="geometry" />
        </mxCell>
        <mxCell id="WfnMXLwcWTietXO8f9_h-46" value="" style="ellipse;whiteSpace=wrap;html=1;aspect=fixed;rounded=1;strokeColor=#858585;strokeWidth=2;fillColor=#ffffff;" parent="1" vertex="1">
          <mxGeometry x="490" y="880" width="25.263076923076923" height="25.263076923076923" as="geometry" />
        </mxCell>
        <mxCell id="WfnMXLwcWTietXO8f9_h-47" value="" style="ellipse;whiteSpace=wrap;html=1;aspect=fixed;rounded=1;strokeColor=#858585;strokeWidth=2;fillColor=#ffffff;" parent="1" vertex="1">
          <mxGeometry x="490" y="911.578947368421" width="25.263076923076923" height="25.263076923076923" as="geometry" />
        </mxCell>
        <mxCell id="WfnMXLwcWTietXO8f9_h-48" value="" style="ellipse;whiteSpace=wrap;html=1;aspect=fixed;rounded=1;strokeColor=#858585;strokeWidth=2;fillColor=#ffffff;" parent="1" vertex="1">
          <mxGeometry x="490" y="943.1578947368421" width="25.263076923076923" height="25.263076923076923" as="geometry" />
        </mxCell>
        <mxCell id="WfnMXLwcWTietXO8f9_h-49" value="" style="ellipse;whiteSpace=wrap;html=1;aspect=fixed;rounded=1;strokeColor=#858585;strokeWidth=2;fillColor=#ffffff;" parent="1" vertex="1">
          <mxGeometry x="490" y="974.7368421052631" width="25.263076923076923" height="25.263076923076923" as="geometry" />
        </mxCell>
        <mxCell id="WfnMXLwcWTietXO8f9_h-50" value="" style="ellipse;whiteSpace=wrap;html=1;aspect=fixed;rounded=1;strokeColor=#858585;strokeWidth=2;fillColor=#ffffff;" parent="1" vertex="1">
          <mxGeometry x="551.7371794871796" y="908.421052631579" width="25.263076923076923" height="25.263076923076923" as="geometry" />
        </mxCell>
        <mxCell id="WfnMXLwcWTietXO8f9_h-51" style="rounded=0;orthogonalLoop=1;jettySize=auto;html=1;exitX=1;exitY=0.5;exitDx=0;exitDy=0;entryX=0;entryY=0.5;entryDx=0;entryDy=0;strokeColor=#858585;strokeWidth=2;endArrow=none;endFill=0;" parent="1" source="WfnMXLwcWTietXO8f9_h-46" target="WfnMXLwcWTietXO8f9_h-50" edge="1">
          <mxGeometry x="487" y="880" as="geometry" />
        </mxCell>
        <mxCell id="WfnMXLwcWTietXO8f9_h-52" style="edgeStyle=none;rounded=0;orthogonalLoop=1;jettySize=auto;html=1;exitX=1;exitY=0.5;exitDx=0;exitDy=0;entryX=0;entryY=0.5;entryDx=0;entryDy=0;endArrow=none;endFill=0;strokeColor=#858585;strokeWidth=2;" parent="1" source="WfnMXLwcWTietXO8f9_h-47" target="WfnMXLwcWTietXO8f9_h-50" edge="1">
          <mxGeometry x="487" y="880" as="geometry" />
        </mxCell>
        <mxCell id="WfnMXLwcWTietXO8f9_h-53" style="edgeStyle=none;rounded=0;orthogonalLoop=1;jettySize=auto;html=1;exitX=1;exitY=0.5;exitDx=0;exitDy=0;entryX=0;entryY=0.5;entryDx=0;entryDy=0;endArrow=none;endFill=0;strokeColor=#858585;strokeWidth=2;" parent="1" source="WfnMXLwcWTietXO8f9_h-48" target="WfnMXLwcWTietXO8f9_h-50" edge="1">
          <mxGeometry x="487" y="880" as="geometry" />
        </mxCell>
        <mxCell id="WfnMXLwcWTietXO8f9_h-54" style="edgeStyle=none;rounded=0;orthogonalLoop=1;jettySize=auto;html=1;exitX=1;exitY=0.5;exitDx=0;exitDy=0;entryX=0;entryY=0.5;entryDx=0;entryDy=0;endArrow=none;endFill=0;strokeColor=#858585;strokeWidth=2;" parent="1" source="WfnMXLwcWTietXO8f9_h-49" target="WfnMXLwcWTietXO8f9_h-50" edge="1">
          <mxGeometry x="487" y="880" as="geometry" />
        </mxCell>
        <mxCell id="WfnMXLwcWTietXO8f9_h-55" value="" style="ellipse;whiteSpace=wrap;html=1;aspect=fixed;rounded=1;strokeColor=#858585;strokeWidth=2;fillColor=#ffffff;" parent="1" vertex="1">
          <mxGeometry x="551.7371794871796" y="946.3157894736842" width="25.263076923076923" height="25.263076923076923" as="geometry" />
        </mxCell>
        <mxCell id="WfnMXLwcWTietXO8f9_h-56" style="edgeStyle=none;rounded=0;orthogonalLoop=1;jettySize=auto;html=1;exitX=1;exitY=0.5;exitDx=0;exitDy=0;entryX=0;entryY=0.5;entryDx=0;entryDy=0;endArrow=none;endFill=0;strokeColor=#858585;strokeWidth=2;" parent="1" source="WfnMXLwcWTietXO8f9_h-46" target="WfnMXLwcWTietXO8f9_h-55" edge="1">
          <mxGeometry x="487" y="880" as="geometry" />
        </mxCell>
        <mxCell id="WfnMXLwcWTietXO8f9_h-57" style="edgeStyle=none;rounded=0;orthogonalLoop=1;jettySize=auto;html=1;exitX=1;exitY=0.5;exitDx=0;exitDy=0;entryX=0;entryY=0.5;entryDx=0;entryDy=0;endArrow=none;endFill=0;strokeColor=#858585;strokeWidth=2;" parent="1" source="WfnMXLwcWTietXO8f9_h-47" target="WfnMXLwcWTietXO8f9_h-55" edge="1">
          <mxGeometry x="487" y="880" as="geometry" />
        </mxCell>
        <mxCell id="WfnMXLwcWTietXO8f9_h-58" style="edgeStyle=none;rounded=0;orthogonalLoop=1;jettySize=auto;html=1;exitX=1;exitY=0.5;exitDx=0;exitDy=0;entryX=0;entryY=0.5;entryDx=0;entryDy=0;endArrow=none;endFill=0;strokeColor=#858585;strokeWidth=2;" parent="1" source="WfnMXLwcWTietXO8f9_h-48" target="WfnMXLwcWTietXO8f9_h-55" edge="1">
          <mxGeometry x="487" y="880" as="geometry" />
        </mxCell>
        <mxCell id="WfnMXLwcWTietXO8f9_h-59" style="edgeStyle=none;rounded=0;orthogonalLoop=1;jettySize=auto;html=1;exitX=1;exitY=0.5;exitDx=0;exitDy=0;entryX=0;entryY=0.5;entryDx=0;entryDy=0;endArrow=none;endFill=0;strokeColor=#858585;strokeWidth=2;" parent="1" source="WfnMXLwcWTietXO8f9_h-49" target="WfnMXLwcWTietXO8f9_h-55" edge="1">
          <mxGeometry x="487" y="880" as="geometry" />
        </mxCell>
        <mxCell id="WfnMXLwcWTietXO8f9_h-60" value="" style="ellipse;whiteSpace=wrap;html=1;aspect=fixed;rounded=1;strokeColor=#858585;strokeWidth=2;fillColor=#ffffff;" parent="1" vertex="1">
          <mxGeometry x="611.9964102564103" y="908.421052631579" width="25.263076923076923" height="25.263076923076923" as="geometry" />
        </mxCell>
        <mxCell id="WfnMXLwcWTietXO8f9_h-61" style="edgeStyle=none;rounded=0;orthogonalLoop=1;jettySize=auto;html=1;exitX=1;exitY=0.5;exitDx=0;exitDy=0;entryX=0;entryY=0.5;entryDx=0;entryDy=0;endArrow=none;endFill=0;strokeColor=#858585;strokeWidth=2;" parent="1" source="WfnMXLwcWTietXO8f9_h-50" target="WfnMXLwcWTietXO8f9_h-60" edge="1">
          <mxGeometry x="487" y="880" as="geometry" />
        </mxCell>
        <mxCell id="WfnMXLwcWTietXO8f9_h-62" style="edgeStyle=none;rounded=0;orthogonalLoop=1;jettySize=auto;html=1;exitX=1;exitY=0.5;exitDx=0;exitDy=0;entryX=0;entryY=0.5;entryDx=0;entryDy=0;endArrow=none;endFill=0;strokeColor=#858585;strokeWidth=2;" parent="1" source="WfnMXLwcWTietXO8f9_h-55" target="WfnMXLwcWTietXO8f9_h-60" edge="1">
          <mxGeometry x="487" y="880" as="geometry" />
        </mxCell>
        <mxCell id="WfnMXLwcWTietXO8f9_h-63" value="" style="ellipse;whiteSpace=wrap;html=1;aspect=fixed;rounded=1;strokeColor=#858585;strokeWidth=2;fillColor=#ffffff;" parent="1" vertex="1">
          <mxGeometry x="611.9964102564103" y="946.3157894736842" width="25.263076923076923" height="25.263076923076923" as="geometry" />
        </mxCell>
        <mxCell id="WfnMXLwcWTietXO8f9_h-64" style="edgeStyle=none;rounded=0;orthogonalLoop=1;jettySize=auto;html=1;exitX=1;exitY=0.5;exitDx=0;exitDy=0;entryX=0;entryY=0.5;entryDx=0;entryDy=0;endArrow=none;endFill=0;strokeColor=#858585;strokeWidth=2;" parent="1" source="WfnMXLwcWTietXO8f9_h-50" target="WfnMXLwcWTietXO8f9_h-63" edge="1">
          <mxGeometry x="487" y="880" as="geometry" />
        </mxCell>
        <mxCell id="WfnMXLwcWTietXO8f9_h-65" style="edgeStyle=none;rounded=0;orthogonalLoop=1;jettySize=auto;html=1;exitX=1;exitY=0.5;exitDx=0;exitDy=0;entryX=0;entryY=0.5;entryDx=0;entryDy=0;endArrow=none;endFill=0;strokeColor=#858585;strokeWidth=2;" parent="1" source="WfnMXLwcWTietXO8f9_h-55" target="WfnMXLwcWTietXO8f9_h-63" edge="1">
          <mxGeometry x="487" y="880" as="geometry" />
        </mxCell>
        <mxCell id="WfnMXLwcWTietXO8f9_h-66" value="Main Network" style="text;html=1;strokeColor=none;fillColor=none;align=center;verticalAlign=middle;whiteSpace=wrap;rounded=0;" parent="1" vertex="1">
          <mxGeometry x="177" y="840" width="83" height="20" as="geometry" />
        </mxCell>
        <mxCell id="WfnMXLwcWTietXO8f9_h-67" value="Objective Network" style="text;html=1;strokeColor=none;fillColor=none;align=center;verticalAlign=middle;whiteSpace=wrap;rounded=0;" parent="1" vertex="1">
          <mxGeometry x="506.43" y="840" width="115.87" height="20" as="geometry" />
        </mxCell>
        <mxCell id="WfnMXLwcWTietXO8f9_h-109" style="edgeStyle=orthogonalEdgeStyle;curved=1;rounded=1;jumpSize=1;orthogonalLoop=1;jettySize=auto;html=1;exitX=0;exitY=0.5;exitDx=0;exitDy=0;endArrow=open;endFill=0;strokeWidth=2;strokeColor=#585858;" parent="1" source="WfnMXLwcWTietXO8f9_h-68" edge="1">
          <mxGeometry relative="1" as="geometry">
            <mxPoint x="914" y="446" as="targetPoint" />
            <Array as="points">
              <mxPoint x="865" y="256" />
              <mxPoint x="865" y="446" />
            </Array>
          </mxGeometry>
        </mxCell>
        <mxCell id="WfnMXLwcWTietXO8f9_h-68" value="&lt;font style=&quot;font-size: 15px&quot;&gt;&lt;b&gt;&lt;font data-font-src=&quot;https://fonts.googleapis.com/css?family=Source+Sans+Pro&quot; style=&quot;font-size: 15px&quot; face=&quot;Source Sans Pro&quot; color=&quot;#858585&quot;&gt;Experiences&lt;/font&gt;&lt;/b&gt;&lt;/font&gt;" style="rounded=1;whiteSpace=wrap;html=1;arcSize=8;strokeWidth=2;strokeColor=#585858;" parent="1" vertex="1">
          <mxGeometry x="938" y="198" width="100" height="115" as="geometry" />
        </mxCell>
        <mxCell id="WfnMXLwcWTietXO8f9_h-89" value="" style="group;" parent="1" vertex="1" connectable="0">
          <mxGeometry x="920" y="400" width="122.72" height="100" as="geometry" />
        </mxCell>
        <mxCell id="WfnMXLwcWTietXO8f9_h-69" value="" style="ellipse;whiteSpace=wrap;html=1;aspect=fixed;rounded=1;strokeWidth=2;fillColor=#ffffff;strokeColor=#585858;" parent="WfnMXLwcWTietXO8f9_h-89" vertex="1">
          <mxGeometry width="21.05257830808253" height="21.05257830808253" as="geometry" />
        </mxCell>
        <mxCell id="WfnMXLwcWTietXO8f9_h-70" value="" style="ellipse;whiteSpace=wrap;html=1;aspect=fixed;rounded=1;strokeWidth=2;fillColor=#ffffff;strokeColor=#585858;" parent="WfnMXLwcWTietXO8f9_h-89" vertex="1">
          <mxGeometry y="26.31580723063915" width="21.05257830808253" height="21.05257830808253" as="geometry" />
        </mxCell>
        <mxCell id="WfnMXLwcWTietXO8f9_h-71" value="" style="ellipse;whiteSpace=wrap;html=1;aspect=fixed;rounded=1;strokeWidth=2;fillColor=#ffffff;strokeColor=#585858;" parent="WfnMXLwcWTietXO8f9_h-89" vertex="1">
          <mxGeometry y="52.6316144612783" width="21.05257830808253" height="21.05257830808253" as="geometry" />
        </mxCell>
        <mxCell id="WfnMXLwcWTietXO8f9_h-72" value="" style="ellipse;whiteSpace=wrap;html=1;aspect=fixed;rounded=1;strokeWidth=2;fillColor=#ffffff;strokeColor=#585858;" parent="WfnMXLwcWTietXO8f9_h-89" vertex="1">
          <mxGeometry y="78.94742169191746" width="21.05257830808253" height="21.05257830808253" as="geometry" />
        </mxCell>
        <mxCell id="WfnMXLwcWTietXO8f9_h-73" value="" style="ellipse;whiteSpace=wrap;html=1;aspect=fixed;rounded=1;strokeWidth=2;fillColor=#ffffff;strokeColor=#585858;" parent="WfnMXLwcWTietXO8f9_h-89" vertex="1">
          <mxGeometry x="51.449226204571815" y="23.684226507575254" width="21.05257830808253" height="21.05257830808253" as="geometry" />
        </mxCell>
        <mxCell id="WfnMXLwcWTietXO8f9_h-74" style="rounded=0;orthogonalLoop=1;jettySize=auto;html=1;exitX=1;exitY=0.5;exitDx=0;exitDy=0;entryX=0;entryY=0.5;entryDx=0;entryDy=0;strokeWidth=2;endArrow=none;endFill=0;strokeColor=#585858;" parent="WfnMXLwcWTietXO8f9_h-89" source="WfnMXLwcWTietXO8f9_h-69" target="WfnMXLwcWTietXO8f9_h-73" edge="1">
          <mxGeometry x="-2.5000766134087407" as="geometry" />
        </mxCell>
        <mxCell id="WfnMXLwcWTietXO8f9_h-75" style="edgeStyle=none;rounded=0;orthogonalLoop=1;jettySize=auto;html=1;exitX=1;exitY=0.5;exitDx=0;exitDy=0;entryX=0;entryY=0.5;entryDx=0;entryDy=0;endArrow=none;endFill=0;strokeWidth=2;strokeColor=#585858;" parent="WfnMXLwcWTietXO8f9_h-89" source="WfnMXLwcWTietXO8f9_h-70" target="WfnMXLwcWTietXO8f9_h-73" edge="1">
          <mxGeometry x="-2.5000766134087407" as="geometry" />
        </mxCell>
        <mxCell id="WfnMXLwcWTietXO8f9_h-76" style="edgeStyle=none;rounded=0;orthogonalLoop=1;jettySize=auto;html=1;exitX=1;exitY=0.5;exitDx=0;exitDy=0;entryX=0;entryY=0.5;entryDx=0;entryDy=0;endArrow=none;endFill=0;strokeWidth=2;strokeColor=#585858;" parent="WfnMXLwcWTietXO8f9_h-89" source="WfnMXLwcWTietXO8f9_h-71" target="WfnMXLwcWTietXO8f9_h-73" edge="1">
          <mxGeometry x="-2.5000766134087407" as="geometry" />
        </mxCell>
        <mxCell id="WfnMXLwcWTietXO8f9_h-77" style="edgeStyle=none;rounded=0;orthogonalLoop=1;jettySize=auto;html=1;exitX=1;exitY=0.5;exitDx=0;exitDy=0;entryX=0;entryY=0.5;entryDx=0;entryDy=0;endArrow=none;endFill=0;strokeWidth=2;strokeColor=#585858;" parent="WfnMXLwcWTietXO8f9_h-89" source="WfnMXLwcWTietXO8f9_h-72" target="WfnMXLwcWTietXO8f9_h-73" edge="1">
          <mxGeometry x="-2.5000766134087407" as="geometry" />
        </mxCell>
        <mxCell id="WfnMXLwcWTietXO8f9_h-78" value="" style="ellipse;whiteSpace=wrap;html=1;aspect=fixed;rounded=1;strokeWidth=2;fillColor=#ffffff;strokeColor=#585858;" parent="WfnMXLwcWTietXO8f9_h-89" vertex="1">
          <mxGeometry x="51.449226204571815" y="55.263195184342194" width="21.05257830808253" height="21.05257830808253" as="geometry" />
        </mxCell>
        <mxCell id="WfnMXLwcWTietXO8f9_h-79" style="edgeStyle=none;rounded=0;orthogonalLoop=1;jettySize=auto;html=1;exitX=1;exitY=0.5;exitDx=0;exitDy=0;entryX=0;entryY=0.5;entryDx=0;entryDy=0;endArrow=none;endFill=0;strokeWidth=2;strokeColor=#585858;" parent="WfnMXLwcWTietXO8f9_h-89" source="WfnMXLwcWTietXO8f9_h-69" target="WfnMXLwcWTietXO8f9_h-78" edge="1">
          <mxGeometry x="-2.5000766134087407" as="geometry" />
        </mxCell>
        <mxCell id="WfnMXLwcWTietXO8f9_h-80" style="edgeStyle=none;rounded=0;orthogonalLoop=1;jettySize=auto;html=1;exitX=1;exitY=0.5;exitDx=0;exitDy=0;entryX=0;entryY=0.5;entryDx=0;entryDy=0;endArrow=none;endFill=0;strokeWidth=2;strokeColor=#585858;" parent="WfnMXLwcWTietXO8f9_h-89" source="WfnMXLwcWTietXO8f9_h-70" target="WfnMXLwcWTietXO8f9_h-78" edge="1">
          <mxGeometry x="-2.5000766134087407" as="geometry" />
        </mxCell>
        <mxCell id="WfnMXLwcWTietXO8f9_h-81" style="edgeStyle=none;rounded=0;orthogonalLoop=1;jettySize=auto;html=1;exitX=1;exitY=0.5;exitDx=0;exitDy=0;entryX=0;entryY=0.5;entryDx=0;entryDy=0;endArrow=none;endFill=0;strokeWidth=2;strokeColor=#585858;" parent="WfnMXLwcWTietXO8f9_h-89" source="WfnMXLwcWTietXO8f9_h-71" target="WfnMXLwcWTietXO8f9_h-78" edge="1">
          <mxGeometry x="-2.5000766134087407" as="geometry" />
        </mxCell>
        <mxCell id="WfnMXLwcWTietXO8f9_h-82" style="edgeStyle=none;rounded=0;orthogonalLoop=1;jettySize=auto;html=1;exitX=1;exitY=0.5;exitDx=0;exitDy=0;entryX=0;entryY=0.5;entryDx=0;entryDy=0;endArrow=none;endFill=0;strokeWidth=2;strokeColor=#585858;" parent="WfnMXLwcWTietXO8f9_h-89" source="WfnMXLwcWTietXO8f9_h-72" target="WfnMXLwcWTietXO8f9_h-78" edge="1">
          <mxGeometry x="-2.5000766134087407" as="geometry" />
        </mxCell>
        <mxCell id="WfnMXLwcWTietXO8f9_h-83" value="" style="ellipse;whiteSpace=wrap;html=1;aspect=fixed;rounded=1;strokeWidth=2;fillColor=#ffffff;strokeColor=#585858;" parent="WfnMXLwcWTietXO8f9_h-89" vertex="1">
          <mxGeometry x="101.66679073395652" y="23.684226507575254" width="21.05257830808253" height="21.05257830808253" as="geometry" />
        </mxCell>
        <mxCell id="WfnMXLwcWTietXO8f9_h-84" style="edgeStyle=none;rounded=0;orthogonalLoop=1;jettySize=auto;html=1;exitX=1;exitY=0.5;exitDx=0;exitDy=0;entryX=0;entryY=0.5;entryDx=0;entryDy=0;endArrow=none;endFill=0;strokeWidth=2;strokeColor=#585858;" parent="WfnMXLwcWTietXO8f9_h-89" source="WfnMXLwcWTietXO8f9_h-73" target="WfnMXLwcWTietXO8f9_h-83" edge="1">
          <mxGeometry x="-2.5000766134087407" as="geometry" />
        </mxCell>
        <mxCell id="WfnMXLwcWTietXO8f9_h-85" style="edgeStyle=none;rounded=0;orthogonalLoop=1;jettySize=auto;html=1;exitX=1;exitY=0.5;exitDx=0;exitDy=0;entryX=0;entryY=0.5;entryDx=0;entryDy=0;endArrow=none;endFill=0;strokeWidth=2;strokeColor=#585858;" parent="WfnMXLwcWTietXO8f9_h-89" source="WfnMXLwcWTietXO8f9_h-78" target="WfnMXLwcWTietXO8f9_h-83" edge="1">
          <mxGeometry x="-2.5000766134087407" as="geometry" />
        </mxCell>
        <mxCell id="WfnMXLwcWTietXO8f9_h-86" value="" style="ellipse;whiteSpace=wrap;html=1;aspect=fixed;rounded=1;strokeWidth=2;fillColor=#ffffff;strokeColor=#585858;" parent="WfnMXLwcWTietXO8f9_h-89" vertex="1">
          <mxGeometry x="101.66679073395652" y="55.263195184342194" width="21.05257830808253" height="21.05257830808253" as="geometry" />
        </mxCell>
        <mxCell id="WfnMXLwcWTietXO8f9_h-87" style="edgeStyle=none;rounded=0;orthogonalLoop=1;jettySize=auto;html=1;exitX=1;exitY=0.5;exitDx=0;exitDy=0;entryX=0;entryY=0.5;entryDx=0;entryDy=0;endArrow=none;endFill=0;strokeWidth=2;strokeColor=#585858;" parent="WfnMXLwcWTietXO8f9_h-89" source="WfnMXLwcWTietXO8f9_h-73" target="WfnMXLwcWTietXO8f9_h-86" edge="1">
          <mxGeometry x="-2.5000766134087407" as="geometry" />
        </mxCell>
        <mxCell id="WfnMXLwcWTietXO8f9_h-88" style="edgeStyle=none;rounded=0;orthogonalLoop=1;jettySize=auto;html=1;exitX=1;exitY=0.5;exitDx=0;exitDy=0;entryX=0;entryY=0.5;entryDx=0;entryDy=0;endArrow=none;endFill=0;strokeWidth=2;strokeColor=#585858;" parent="WfnMXLwcWTietXO8f9_h-89" source="WfnMXLwcWTietXO8f9_h-78" target="WfnMXLwcWTietXO8f9_h-86" edge="1">
          <mxGeometry x="-2.5000766134087407" as="geometry" />
        </mxCell>
        <mxCell id="WfnMXLwcWTietXO8f9_h-90" value="" style="shape=curlyBracket;whiteSpace=wrap;html=1;rounded=1;flipH=1;strokeWidth=2;fillColor=#ffffff;strokeColor=#585858;" parent="1" vertex="1">
          <mxGeometry x="1050" y="420" width="20" height="60" as="geometry" />
        </mxCell>
        <mxCell id="WfnMXLwcWTietXO8f9_h-91" value="&lt;font data-font-src=&quot;https://fonts.googleapis.com/css?family=Source+Sans+Pro&quot; style=&quot;font-size: 13px&quot; face=&quot;Source Sans Pro&quot; color=&quot;#858585&quot;&gt;&lt;b&gt;Q-Values&lt;/b&gt;&lt;/font&gt;" style="text;html=1;fillColor=none;align=center;verticalAlign=middle;whiteSpace=wrap;rounded=0;" parent="1" vertex="1">
          <mxGeometry x="1082" y="439" width="40" height="20" as="geometry" />
        </mxCell>
        <mxCell id="WfnMXLwcWTietXO8f9_h-99" style="edgeStyle=orthogonalEdgeStyle;rounded=1;orthogonalLoop=1;jettySize=auto;html=1;exitX=0.5;exitY=0;exitDx=0;exitDy=0;entryX=1;entryY=0.5;entryDx=0;entryDy=0;endArrow=open;endFill=0;strokeWidth=2;jumpSize=1;strokeColor=#585858;" parent="1" source="WfnMXLwcWTietXO8f9_h-92" target="WfnMXLwcWTietXO8f9_h-68" edge="1">
          <mxGeometry relative="1" as="geometry" />
        </mxCell>
        <mxCell id="WfnMXLwcWTietXO8f9_h-92" value="&lt;font style=&quot;font-size: 14px&quot; color=&quot;#858585&quot;&gt;&lt;b&gt;&lt;font data-font-src=&quot;https://fonts.googleapis.com/css?family=Source+Sans+Pro&quot; style=&quot;font-size: 14px&quot; face=&quot;Source Sans Pro&quot;&gt;Action taken&lt;/font&gt;&lt;/b&gt;&lt;/font&gt;" style="rounded=1;whiteSpace=wrap;html=1;strokeWidth=2;fillColor=#ffffff;arcSize=50;strokeColor=#585858;" parent="1" vertex="1">
          <mxGeometry x="1191" y="435" width="90" height="35" as="geometry" />
        </mxCell>
        <mxCell id="WfnMXLwcWTietXO8f9_h-103" style="edgeStyle=orthogonalEdgeStyle;rounded=1;orthogonalLoop=1;jettySize=auto;html=1;exitX=0.5;exitY=0;exitDx=0;exitDy=0;entryX=1;entryY=0.5;entryDx=0;entryDy=0;endArrow=open;endFill=0;strokeWidth=2;strokeColor=#585858;" parent="1" source="WfnMXLwcWTietXO8f9_h-93" target="WfnMXLwcWTietXO8f9_h-68" edge="1">
          <mxGeometry relative="1" as="geometry" />
        </mxCell>
        <mxCell id="WfnMXLwcWTietXO8f9_h-93" value="&lt;font data-font-src=&quot;https://fonts.googleapis.com/css?family=Source+Sans+Pro&quot; face=&quot;Source Sans Pro&quot; color=&quot;#858585&quot;&gt;&lt;b&gt;&lt;font style=&quot;font-size: 14px&quot;&gt;Resulting State&lt;/font&gt;&lt;/b&gt;&lt;/font&gt;" style="rounded=1;whiteSpace=wrap;html=1;strokeWidth=2;fillColor=#ffffff;arcSize=50;strokeColor=#585858;" parent="1" vertex="1">
          <mxGeometry x="1338" y="435" width="87" height="35" as="geometry" />
        </mxCell>
        <mxCell id="WfnMXLwcWTietXO8f9_h-104" style="edgeStyle=orthogonalEdgeStyle;rounded=1;orthogonalLoop=1;jettySize=auto;html=1;exitX=0.5;exitY=0;exitDx=0;exitDy=0;entryX=1;entryY=0.5;entryDx=0;entryDy=0;endArrow=open;endFill=0;strokeWidth=2;strokeColor=#585858;" parent="1" source="WfnMXLwcWTietXO8f9_h-94" target="WfnMXLwcWTietXO8f9_h-68" edge="1">
          <mxGeometry relative="1" as="geometry" />
        </mxCell>
        <mxCell id="WfnMXLwcWTietXO8f9_h-94" value="&lt;b&gt;&lt;font style=&quot;font-size: 14px&quot; data-font-src=&quot;https://fonts.googleapis.com/css?family=Source+Sans+Pro&quot; face=&quot;Source Sans Pro&quot; color=&quot;#858585&quot;&gt;Reward Function&lt;/font&gt;&lt;/b&gt;" style="rounded=1;whiteSpace=wrap;html=1;strokeWidth=2;fillColor=#ffffff;arcSize=50;strokeColor=#585858;" parent="1" vertex="1">
          <mxGeometry x="1485" y="434" width="80" height="35" as="geometry" />
        </mxCell>
        <mxCell id="WfnMXLwcWTietXO8f9_h-96" style="edgeStyle=none;rounded=0;orthogonalLoop=1;jettySize=auto;html=1;entryX=0;entryY=0.5;entryDx=0;entryDy=0;endArrow=open;endFill=0;strokeWidth=2;strokeColor=#585858;" parent="1" edge="1">
          <mxGeometry relative="1" as="geometry">
            <mxPoint x="1280" y="450" as="sourcePoint" />
            <mxPoint x="1330" y="450" as="targetPoint" />
          </mxGeometry>
        </mxCell>
        <mxCell id="WfnMXLwcWTietXO8f9_h-97" style="edgeStyle=none;rounded=0;orthogonalLoop=1;jettySize=auto;html=1;entryX=0;entryY=0.5;entryDx=0;entryDy=0;endArrow=open;endFill=0;strokeWidth=2;strokeColor=#585858;" parent="1" edge="1">
          <mxGeometry relative="1" as="geometry">
            <mxPoint x="1136" y="450" as="sourcePoint" />
            <mxPoint x="1186" y="450" as="targetPoint" />
          </mxGeometry>
        </mxCell>
        <mxCell id="WfnMXLwcWTietXO8f9_h-98" style="edgeStyle=none;rounded=0;orthogonalLoop=1;jettySize=auto;html=1;entryX=0;entryY=0.5;entryDx=0;entryDy=0;endArrow=open;endFill=0;strokeWidth=2;strokeColor=#585858;" parent="1" edge="1">
          <mxGeometry relative="1" as="geometry">
            <mxPoint x="1430" y="448.5" as="sourcePoint" />
            <mxPoint x="1480" y="448.5" as="targetPoint" />
          </mxGeometry>
        </mxCell>
        <mxCell id="WfnMXLwcWTietXO8f9_h-108" value="&lt;b&gt;&lt;font style=&quot;font-size: 14px&quot; data-font-src=&quot;https://fonts.googleapis.com/css?family=Source+Sans+Pro&quot; face=&quot;Source Sans Pro&quot; color=&quot;#858585&quot;&gt;Past experiences are used to train the models&lt;/font&gt;&lt;/b&gt;" style="text;html=1;fillColor=none;align=center;verticalAlign=middle;whiteSpace=wrap;rounded=0;" parent="1" vertex="1">
          <mxGeometry x="770" y="330" width="80" height="20" as="geometry" />
        </mxCell>
      </root>
    </mxGraphModel>
  </diagram>
  <diagram id="i5v_A98aQyZnLWnqWhkg" name="Arquitectura">
    <mxGraphModel dx="868" dy="440" grid="1" gridSize="10" guides="1" tooltips="1" connect="1" arrows="1" fold="1" page="1" pageScale="1" pageWidth="827" pageHeight="1169" math="0" shadow="0">
      <root>
        <mxCell id="nq4Sh8a72avzBMVO2zn_-0" />
        <mxCell id="nq4Sh8a72avzBMVO2zn_-1" parent="nq4Sh8a72avzBMVO2zn_-0" />
      </root>
    </mxGraphModel>
  </diagram>
  <diagram id="U69sRSnu_TfViAd1xQSZ" name="Tareas pendientes y futuras">
    <mxGraphModel dx="1108" dy="440" grid="1" gridSize="10" guides="1" tooltips="1" connect="1" arrows="1" fold="1" page="1" pageScale="1" pageWidth="827" pageHeight="1169" math="0" shadow="0">
      <root>
        <mxCell id="C8X6q1t80h4phnbs14IZ-0" />
        <mxCell id="C8X6q1t80h4phnbs14IZ-1" parent="C8X6q1t80h4phnbs14IZ-0" />
        <mxCell id="C8X6q1t80h4phnbs14IZ-2" value="&lt;div&gt;Actualizar métricas&lt;/div&gt;&lt;blockquote&gt;&lt;div align=&quot;left&quot;&gt;&lt;ol style=&quot;line-height: 130%&quot;&gt;&lt;li&gt;n. de nodos hasta mejor solución (epsilon)&lt;/li&gt;&lt;li&gt;&lt;strike&gt;n. nodos generados&lt;/strike&gt;&lt;/li&gt;&lt;li&gt;&lt;strike&gt;iteraciones&lt;/strike&gt;&lt;/li&gt;&lt;li&gt;&lt;strike&gt;tiempo&lt;/strike&gt;&lt;/li&gt;&lt;/ol&gt;&lt;/div&gt;&lt;/blockquote&gt;" style="rounded=1;whiteSpace=wrap;html=1;arcSize=10;" vertex="1" parent="C8X6q1t80h4phnbs14IZ-1">
          <mxGeometry x="40" y="80" width="290" height="140" as="geometry" />
        </mxCell>
        <mxCell id="C8X6q1t80h4phnbs14IZ-3" value="&lt;div&gt;Agregar Técnicas comparativas&lt;/div&gt;&lt;div&gt;&lt;br&gt;&lt;/div&gt;&lt;div align=&quot;left&quot;&gt;&lt;ol&gt;&lt;li&gt;&lt;strike&gt;Con Agente&amp;nbsp; &lt;/strike&gt;&lt;br&gt;&lt;/li&gt;&lt;li&gt;MiniLB (No dive)&amp;nbsp; &lt;font color=&quot;#FF3333&quot;&gt;revisar&lt;/font&gt;&lt;br&gt;&lt;/li&gt;&lt;li&gt;&lt;strike&gt;Sólo Dive&lt;/strike&gt;&lt;/li&gt;&lt;li&gt;Random&amp;nbsp; &lt;font color=&quot;#FF3333&quot;&gt;revisar&lt;/font&gt;&lt;/li&gt;&lt;/ol&gt;&lt;/div&gt;" style="rounded=1;whiteSpace=wrap;html=1;arcSize=10;" vertex="1" parent="C8X6q1t80h4phnbs14IZ-1">
          <mxGeometry x="40" y="260" width="290" height="140" as="geometry" />
        </mxCell>
        <mxCell id="C8X6q1t80h4phnbs14IZ-4" value="&lt;div&gt;Aumentar cantidad de instancias&lt;br&gt;&lt;/div&gt;&lt;div align=&quot;left&quot;&gt;&lt;ol&gt;&lt;li&gt;Habilitar instacias AMPL&lt;/li&gt;&lt;li&gt;&lt;font color=&quot;#3333FF&quot;&gt;Generador de instancias&lt;/font&gt;&lt;br&gt;&lt;/li&gt;&lt;/ol&gt;&lt;/div&gt;" style="rounded=1;whiteSpace=wrap;html=1;arcSize=10;" vertex="1" parent="C8X6q1t80h4phnbs14IZ-1">
          <mxGeometry x="410" y="80" width="290" height="140" as="geometry" />
        </mxCell>
        <mxCell id="C8X6q1t80h4phnbs14IZ-5" value="&lt;div&gt;Analizar Resultados&lt;br&gt;&lt;/div&gt;&lt;div align=&quot;left&quot;&gt;&lt;ol&gt;&lt;li&gt;Promedio, Desviación Estándar, Max y Min&lt;/li&gt;&lt;li&gt;&lt;font color=&quot;#3333FF&quot;&gt;Test de Wilcoxon Mann-Whitney&lt;/font&gt;&lt;/li&gt;&lt;/ol&gt;&lt;/div&gt;" style="rounded=1;whiteSpace=wrap;html=1;arcSize=10;" vertex="1" parent="C8X6q1t80h4phnbs14IZ-1">
          <mxGeometry x="410" y="260" width="290" height="140" as="geometry" />
        </mxCell>
        <mxCell id="C8X6q1t80h4phnbs14IZ-6" value="&lt;div&gt;Analizar Otros componentes alterables&lt;br&gt;&lt;/div&gt;&lt;div align=&quot;left&quot;&gt;&lt;ol&gt;&lt;li&gt;Selección inteligente de política selección de nodos/branching.&lt;/li&gt;&lt;li&gt;Branching.&lt;/li&gt;&lt;li&gt;Otros(?).&lt;br&gt;&lt;/li&gt;&lt;/ol&gt;&lt;/div&gt;" style="rounded=1;whiteSpace=wrap;html=1;arcSize=10;" vertex="1" parent="C8X6q1t80h4phnbs14IZ-1">
          <mxGeometry x="40" y="444.5" width="290" height="140" as="geometry" />
        </mxCell>
        <mxCell id="C8X6q1t80h4phnbs14IZ-7" value="&lt;div style=&quot;font-size: 11px&quot;&gt;&lt;font style=&quot;font-size: 11px&quot;&gt;Analizar Puntos de mejora para agente&lt;/font&gt;&lt;/div&gt;&lt;div style=&quot;font-size: 11px&quot; align=&quot;left&quot;&gt;&lt;ol&gt;&lt;li&gt;&lt;font style=&quot;font-size: 11px&quot;&gt;Normalizar datos (¿Con respecto a % mejora?).&lt;br&gt;&lt;/font&gt;&lt;/li&gt;&lt;li&gt;&lt;font style=&quot;font-size: 11px&quot;&gt;Arquitectura.&lt;/font&gt;&lt;/li&gt;&lt;li&gt;&lt;font style=&quot;font-size: 11px&quot;&gt;Datos del estado utilizados.&lt;br&gt;&lt;/font&gt;&lt;/li&gt;&lt;li&gt;&lt;font style=&quot;font-size: 11px&quot;&gt;Función de recompensa (castigo)&lt;/font&gt;&lt;/li&gt;&lt;li&gt;&lt;font style=&quot;font-size: 11px&quot;&gt;Procedimiento de entrenamiento (¿1 por instancia o 1 por iteración?)&lt;/font&gt;&lt;/li&gt;&lt;/ol&gt;&lt;/div&gt;" style="rounded=1;whiteSpace=wrap;html=1;arcSize=10;" vertex="1" parent="C8X6q1t80h4phnbs14IZ-1">
          <mxGeometry x="410" y="445" width="290" height="140" as="geometry" />
        </mxCell>
      </root>
    </mxGraphModel>
  </diagram>
</mxfile>
